#tb 0: 1/1000
#media_type 0: video
#codec_id 0: rawvideo
#dimensions 0: 488x488
#sar 0: 0/1
0,          0,          0,       80,   952576, 0x22e300c0
0,         80,         80,       80,   952576, 0x4e7e9a01
0,        160,        160,       80,   952576, 0x01b6a421
0,        240,        240,       80,   952576, 0x26f09b88
0,        320,        320,       80,   952576, 0xbb1404ac
0,        400,        400,      480,   952576, 0x14368b56
0,        880,        880,       80,   952576, 0x1843fad6
0,        960,        960,       80,   952576, 0xc3c4bb73
0,       1040,       1040,      160,   952576, 0x9d662364
0,       1200,       1200,      160,   952576, 0xf8218a9a
0,       1360,       1360,      160,   952576, 0x5828d888
0,       1520,       1520,      560,   952576, 0x6a718e32
0,       2080,       2080,       80,   952576, 0x95b7ff21
0,       2160,       2160,       80,   952576, 0x84662ce1
0,       2240,       2240,      720,   952576, 0x11974723
0,       2960,       2960,       80,   952576, 0xd4a644ef
0,       3040,       3040,       80,   952576, 0x3d29c6a8
0,       3120,       3120,      720,   952576, 0x3d3a2d40
